<svg width="16" height="16" viewBox="0 0 16 16" fill="none" xmlns="http://www.w3.org/2000/svg">
<g id="Brain">
<path id="Vector" d="M14.6313 7.46632C14.6307 6.84542 14.4542 6.23739 14.1224 5.71259C13.7906 5.1878 13.317 4.76769 12.7563 4.50089V4.41945C12.7558 3.81548 12.5608 3.22772 12.2003 2.74315C11.8398 2.25858 11.3328 1.90293 10.7545 1.72884C10.1762 1.55475 9.55713 1.57145 8.98903 1.77649C8.42092 1.98152 7.93391 2.36399 7.60005 2.8673C7.26619 2.36399 6.77918 1.98152 6.21107 1.77649C5.64296 1.57145 5.02394 1.55475 4.44561 1.72884C3.86727 1.90293 3.36033 2.25858 2.99981 2.74315C2.63929 3.22772 2.44434 3.81548 2.4438 4.41945V4.50089C1.88267 4.76696 1.40856 5.1868 1.07658 5.71163C0.744592 6.23646 0.568359 6.84472 0.568359 7.46574C0.568359 8.08675 0.744592 8.69502 1.07658 9.21985C1.40856 9.74467 1.88267 10.1645 2.4438 10.4306V10.5132C2.44434 11.1172 2.63929 11.7049 2.99981 12.1895C3.36033 12.6741 3.86727 13.0297 4.44561 13.2038C5.02394 13.3779 5.64296 13.3612 6.21107 13.1562C6.77918 12.9511 7.26619 12.5687 7.60005 12.0653C7.93391 12.5687 8.42092 12.9511 8.98903 13.1562C9.55713 13.3612 10.1762 13.3779 10.7545 13.2038C11.3328 13.0297 11.8398 12.6741 12.2003 12.1895C12.5608 11.7049 12.7558 11.1172 12.7563 10.5132V10.4306C13.3169 10.164 13.7905 9.74409 14.1223 9.21949C14.4541 8.6949 14.6306 8.08706 14.6313 7.46632ZM5.2563 12.3882C4.79396 12.3881 4.34795 12.2173 4.00393 11.9084C3.65991 11.5995 3.44213 11.1744 3.39243 10.7148C3.54402 10.7364 3.69693 10.7474 3.85005 10.7476H4.3188C4.44312 10.7476 4.56235 10.6982 4.65026 10.6103C4.73816 10.5224 4.78755 10.4031 4.78755 10.2788C4.78755 10.1545 4.73816 10.0353 4.65026 9.94737C4.56235 9.85946 4.44312 9.81007 4.3188 9.81007H3.85005C3.29667 9.81072 2.7609 9.61554 2.33761 9.25908C1.91433 8.90263 1.63082 8.4079 1.53728 7.86247C1.44375 7.31705 1.54622 6.75613 1.82656 6.27901C2.1069 5.80189 2.54701 5.43935 3.06899 5.25558C3.16033 5.22325 3.23939 5.1634 3.29532 5.08429C3.35125 5.00517 3.38128 4.91067 3.3813 4.81379V4.41945C3.3813 3.92217 3.57884 3.44525 3.93047 3.09362C4.2821 2.74199 4.75902 2.54445 5.2563 2.54445C5.75358 2.54445 6.23049 2.74199 6.58212 3.09362C6.93375 3.44525 7.1313 3.92217 7.1313 4.41945V8.41906C6.61656 7.9561 5.9486 7.70019 5.2563 7.7007C5.13198 7.7007 5.01275 7.75008 4.92484 7.83799C4.83693 7.9259 4.78755 8.04513 4.78755 8.16945C4.78755 8.29377 4.83693 8.413 4.92484 8.50091C5.01275 8.58881 5.13198 8.6382 5.2563 8.6382C5.75358 8.6382 6.23049 8.83574 6.58212 9.18737C6.93375 9.539 7.1313 10.0159 7.1313 10.5132C7.1313 11.0105 6.93375 11.4874 6.58212 11.839C6.23049 12.1907 5.75358 12.3882 5.2563 12.3882ZM11.35 9.81007H10.8813C10.757 9.81007 10.6378 9.85946 10.5498 9.94737C10.4619 10.0353 10.4125 10.1545 10.4125 10.2788C10.4125 10.4031 10.4619 10.5224 10.5498 10.6103C10.6378 10.6982 10.757 10.7476 10.8813 10.7476H11.35C11.5032 10.7474 11.6561 10.7364 11.8077 10.7148C11.7687 11.0749 11.6263 11.4161 11.3976 11.697C11.1689 11.9779 10.8637 12.1866 10.5189 12.2977C10.1741 12.4089 9.8045 12.4178 9.45477 12.3234C9.10504 12.2289 8.79015 12.0352 8.54817 11.7656C8.3062 11.496 8.1475 11.1621 8.09126 10.8043C8.03503 10.4464 8.08366 10.0799 8.23129 9.74911C8.37891 9.41829 8.61921 9.13733 8.92312 8.94018C9.22703 8.74304 9.58154 8.63815 9.9438 8.6382C10.0681 8.6382 10.1873 8.58881 10.2753 8.50091C10.3632 8.413 10.4125 8.29377 10.4125 8.16945C10.4125 8.04513 10.3632 7.9259 10.2753 7.83799C10.1873 7.75008 10.0681 7.7007 9.9438 7.7007C9.2515 7.70019 8.58354 7.9561 8.0688 8.41906V4.41945C8.0688 3.92217 8.26634 3.44525 8.61797 3.09362C8.96961 2.74199 9.44652 2.54445 9.9438 2.54445C10.4411 2.54445 10.918 2.74199 11.2696 3.09362C11.6213 3.44525 11.8188 3.92217 11.8188 4.41945V4.81379C11.8188 4.91067 11.8489 5.00517 11.9048 5.08429C11.9607 5.1634 12.0398 5.22325 12.1311 5.25558C12.6531 5.43935 13.0932 5.80189 13.3735 6.27901C13.6539 6.75613 13.7564 7.31705 13.6628 7.86247C13.5693 8.4079 13.2858 8.90263 12.8625 9.25908C12.4392 9.61554 11.9034 9.81072 11.35 9.81007ZM12.2875 6.7632C12.2875 6.88752 12.2382 7.00675 12.1503 7.09466C12.0623 7.18256 11.9431 7.23195 11.8188 7.23195H11.5844C11.025 7.23195 10.4885 7.00971 10.0929 6.61413C9.69729 6.21854 9.47505 5.68202 9.47505 5.12257V4.8882C9.47505 4.76388 9.52443 4.64465 9.61234 4.55674C9.70025 4.46884 9.81948 4.41945 9.9438 4.41945C10.0681 4.41945 10.1873 4.46884 10.2753 4.55674C10.3632 4.64465 10.4125 4.76388 10.4125 4.8882V5.12257C10.4125 5.43337 10.536 5.73145 10.7558 5.95121C10.9756 6.17098 11.2736 6.29445 11.5844 6.29445H11.8188C11.9431 6.29445 12.0623 6.34383 12.1503 6.43174C12.2382 6.51965 12.2875 6.63888 12.2875 6.7632ZM3.61567 7.23195H3.3813C3.25698 7.23195 3.13775 7.18256 3.04984 7.09466C2.96193 7.00675 2.91255 6.88752 2.91255 6.7632C2.91255 6.63888 2.96193 6.51965 3.04984 6.43174C3.13775 6.34383 3.25698 6.29445 3.3813 6.29445H3.61567C3.92647 6.29445 4.22455 6.17098 4.44431 5.95121C4.66408 5.73145 4.78755 5.43337 4.78755 5.12257V4.8882C4.78755 4.76388 4.83693 4.64465 4.92484 4.55674C5.01275 4.46884 5.13198 4.41945 5.2563 4.41945C5.38062 4.41945 5.49985 4.46884 5.58776 4.55674C5.67566 4.64465 5.72505 4.76388 5.72505 4.8882V5.12257C5.72505 5.68202 5.50281 6.21854 5.10723 6.61413C4.71164 7.00971 4.17511 7.23195 3.61567 7.23195Z" fill="#1A96BF"/>
</g>
</svg>
