<svg width="15" height="16" viewBox="0 0 15 16" fill="none" xmlns="http://www.w3.org/2000/svg">
<g id="PhoneCall">
<path id="Vector" d="M8.45333 3.19121C8.46924 3.13172 8.49672 3.07595 8.53419 3.02708C8.57166 2.97822 8.6184 2.93721 8.67172 2.90642C8.72505 2.87562 8.78392 2.85563 8.84497 2.84759C8.90603 2.83955 8.96807 2.84362 9.02755 2.85957C9.89653 3.0863 10.6894 3.54057 11.3244 4.17561C11.9594 4.81064 12.4137 5.60348 12.6404 6.47246C12.6564 6.53194 12.6605 6.59398 12.6524 6.65503C12.6444 6.71609 12.6244 6.77496 12.5936 6.82828C12.5628 6.88161 12.5218 6.92834 12.4729 6.96582C12.4241 7.00329 12.3683 7.03077 12.3088 7.04668C12.2692 7.05708 12.2284 7.0624 12.1875 7.0625C12.0842 7.0625 11.9838 7.02837 11.9019 6.96544C11.82 6.9025 11.7612 6.81426 11.7346 6.71445C11.5497 6.00507 11.1789 5.35784 10.6605 4.83947C10.1422 4.3211 9.49494 3.95034 8.78555 3.76543C8.72601 3.74958 8.67018 3.72215 8.62125 3.6847C8.57232 3.64726 8.53125 3.60053 8.50039 3.5472C8.46953 3.49387 8.44949 3.43497 8.44142 3.37389C8.43334 3.31281 8.43739 3.25073 8.45333 3.19121ZM8.3168 5.64043C9.12481 5.85605 9.64395 6.3752 9.85958 7.1832C9.88618 7.28301 9.945 7.37125 10.0269 7.43419C10.1088 7.49712 10.2092 7.53125 10.3125 7.53125C10.3534 7.53115 10.3942 7.52583 10.4338 7.51543C10.4933 7.49952 10.5491 7.47204 10.5979 7.43457C10.6468 7.39709 10.6878 7.35036 10.7186 7.29703C10.7494 7.24371 10.7694 7.18484 10.7774 7.12378C10.7855 7.06273 10.7814 7.00069 10.7654 6.94121C10.4654 5.81855 9.68145 5.03457 8.5588 4.73457C8.43867 4.70248 8.31072 4.71942 8.20309 4.78167C8.09545 4.84392 8.01696 4.94638 7.98487 5.0665C7.95278 5.18663 7.96972 5.31458 8.03197 5.42221C8.09422 5.52984 8.19668 5.60834 8.3168 5.64043ZM13.118 11.2273C13.0135 12.0213 12.6236 12.7501 12.021 13.2776C11.4185 13.8051 10.6446 14.0952 9.84376 14.0937C5.19141 14.0937 1.40626 10.3086 1.40626 5.65625C1.40482 4.85544 1.69494 4.0815 2.22243 3.47896C2.74992 2.87643 3.4787 2.48651 4.27266 2.38203C4.47343 2.35752 4.67675 2.39859 4.85226 2.49912C5.02777 2.59966 5.16606 2.75426 5.24649 2.93984L6.48399 5.70254V5.70957C6.54556 5.85163 6.57099 6.00673 6.55801 6.16102C6.54502 6.31531 6.49403 6.46398 6.40958 6.59375C6.39903 6.60957 6.3879 6.62422 6.37618 6.63887L5.15626 8.08496C5.59512 8.97676 6.52794 9.90137 7.43145 10.3414L8.85762 9.12793C8.87163 9.11616 8.8863 9.1052 8.90157 9.09512C9.03123 9.00863 9.18041 8.95584 9.33561 8.94152C9.49081 8.9272 9.64713 8.95179 9.79044 9.01309L9.79805 9.0166L12.5584 10.2535C12.7443 10.3337 12.8993 10.4718 13.0002 10.6474C13.101 10.8229 13.1424 11.0264 13.118 11.2273ZM12.1875 11.1102C12.1875 11.1102 12.1834 11.1102 12.1811 11.1102L9.42715 9.87676L8.0004 11.0902C7.98656 11.102 7.97208 11.1129 7.95704 11.123C7.82213 11.2131 7.66618 11.2665 7.50443 11.2782C7.34267 11.2899 7.18065 11.2595 7.03419 11.1898C5.93672 10.6596 4.84278 9.57383 4.31192 8.48809C4.24162 8.34269 4.21008 8.1816 4.22035 8.02043C4.23061 7.85925 4.28234 7.70347 4.37051 7.56816C4.38045 7.55228 4.39162 7.53719 4.40391 7.52305L5.62501 6.0752L4.39454 3.32129C4.39431 3.31895 4.39431 3.3166 4.39454 3.31426C3.82633 3.38838 3.30462 3.66709 2.92712 4.09819C2.54962 4.5293 2.34222 5.08323 2.34376 5.65625C2.34593 7.64471 3.1368 9.5511 4.54285 10.9572C5.9489 12.3632 7.8553 13.1541 9.84376 13.1562C10.4164 13.1582 10.9702 12.9515 11.4016 12.5749C11.8329 12.1982 12.1123 11.6773 12.1875 11.1096V11.1102Z" fill="#F9FDFF"/>
</g>
</svg>
