<svg width="15" height="15" viewBox="0 0 15 15" fill="none" xmlns="http://www.w3.org/2000/svg">
<path d="M12.9879 7.83164L8.76914 12.0504C8.68118 12.1383 8.56189 12.1878 8.4375 12.1878C8.31311 12.1878 8.19382 12.1383 8.10586 12.0504C8.0179 11.9624 7.96849 11.8431 7.96849 11.7188C7.96849 11.5944 8.0179 11.4751 8.10586 11.3871L11.5248 7.96875H2.34375C2.21943 7.96875 2.1002 7.91937 2.01229 7.83146C1.92439 7.74355 1.875 7.62432 1.875 7.5C1.875 7.37568 1.92439 7.25645 2.01229 7.16854C2.1002 7.08064 2.21943 7.03125 2.34375 7.03125H11.5248L8.10586 3.61289C8.0179 3.52494 7.96849 3.40564 7.96849 3.28125C7.96849 3.15686 8.0179 3.03757 8.10586 2.94961C8.19382 2.86165 8.31311 2.81224 8.4375 2.81224C8.56189 2.81224 8.68118 2.86165 8.76914 2.94961L12.9879 7.16836C13.0315 7.21189 13.066 7.26359 13.0896 7.3205C13.1132 7.3774 13.1254 7.4384 13.1254 7.5C13.1254 7.5616 13.1132 7.6226 13.0896 7.6795C13.066 7.73641 13.0315 7.78811 12.9879 7.83164Z" fill="#F9FDFF"/>
</svg>
