<svg width="371" height="350" viewBox="0 0 371 350" fill="none" xmlns="http://www.w3.org/2000/svg">
<path d="M296.175 269.05C296.175 269.05 279.567 285.362 275.497 290.144C268.868 297.219 261.056 300.56 250.816 300.56C249.831 300.56 248.781 300.56 247.796 300.494C228.301 299.25 210.183 291.651 196.595 285.165C159.442 267.216 126.818 241.733 99.7073 209.438C77.3233 182.514 62.3568 157.621 52.4448 130.894C46.3401 114.582 44.1083 101.873 45.0929 89.8854C45.7493 82.221 48.7032 75.8667 54.1515 70.4295L76.5356 48.0912C79.7521 45.0778 83.1655 43.4401 86.5132 43.4401C90.6487 43.4401 93.9964 45.9294 96.097 48.0257C96.1626 48.0912 96.2283 48.1567 96.2939 48.2222C100.298 51.9562 104.105 55.8212 108.11 59.9482C110.144 62.0445 112.245 64.1407 114.346 66.3025L132.266 84.1862C139.224 91.1301 139.224 97.5499 132.266 104.494C130.362 106.394 128.524 108.293 126.621 110.127C121.107 115.761 125.438 111.438 119.727 116.548C119.596 116.679 119.465 116.745 119.399 116.876C113.754 122.509 114.804 128.012 115.986 131.746C116.051 131.943 116.117 132.139 116.183 132.336C120.843 143.603 127.408 154.215 137.385 166.858L137.451 166.924C155.568 189.197 174.67 206.556 195.741 219.855C198.433 221.558 201.189 222.933 203.815 224.244C206.178 225.423 208.41 226.536 210.314 227.716C210.576 227.847 210.839 228.043 211.101 228.174C213.333 229.288 215.434 229.812 217.6 229.812C223.048 229.812 226.462 226.405 227.578 225.292L240.444 212.451C242.676 210.224 246.221 207.538 250.356 207.538C254.426 207.538 257.774 210.093 259.809 212.32C259.875 212.386 259.875 212.386 259.94 212.451L296.109 248.546C302.87 255.228 296.175 269.05 296.175 269.05Z" fill="#DDF6FE"/>
<path d="M323.175 275.05C323.175 275.05 306.567 291.362 302.497 296.144C295.868 303.219 288.056 306.56 277.816 306.56C276.831 306.56 275.781 306.56 274.796 306.494C255.301 305.25 237.183 297.651 223.595 291.165C186.442 273.216 153.818 247.733 126.707 215.438C104.323 188.514 89.3568 163.621 79.4448 136.894C73.3401 120.582 71.1083 107.873 72.0929 95.8854C72.7493 88.221 75.7032 81.8667 81.1515 76.4295L103.536 54.0912C106.752 51.0778 110.165 49.4401 113.513 49.4401C117.649 49.4401 120.996 51.9294 123.097 54.0257C123.163 54.0912 123.228 54.1567 123.294 54.2222C127.298 57.9562 131.105 61.8212 135.11 65.9482C137.144 68.0445 139.245 70.1407 141.346 72.3025L159.266 90.1862C166.224 97.1301 166.224 103.55 159.266 110.494C157.362 112.394 155.524 114.293 153.621 116.127C148.107 121.761 152.438 117.438 146.727 122.548C146.596 122.679 146.465 122.745 146.399 122.876C140.754 128.509 141.804 134.012 142.986 137.746C143.051 137.943 143.117 138.139 143.183 138.336C147.843 149.603 154.408 160.215 164.385 172.858L164.451 172.924C182.568 195.197 201.67 212.556 222.741 225.855C225.433 227.558 228.189 228.933 230.815 230.244C233.178 231.423 235.41 232.536 237.314 233.716C237.576 233.847 237.839 234.043 238.101 234.174C240.333 235.288 242.434 235.812 244.6 235.812C250.048 235.812 253.462 232.405 254.578 231.292L267.444 218.451C269.676 216.224 273.221 213.538 277.356 213.538C281.426 213.538 284.774 216.093 286.809 218.32C286.875 218.386 286.875 218.386 286.94 218.451L323.109 254.546C329.87 261.228 323.175 275.05 323.175 275.05Z" stroke="#515A6A" stroke-width="8" stroke-linecap="round" stroke-linejoin="round"/>
</svg>
